<svg width="26" height="20" viewBox="0 0 26 20" fill="none" xmlns="http://www.w3.org/2000/svg">
<path d="M1.3335 12.9167L12.5828 18.5413C12.7358 18.6178 12.8123 18.6561 12.8926 18.6711C12.9637 18.6845 13.0366 18.6845 13.1077 18.6711C13.188 18.6561 13.2645 18.6178 13.4176 18.5413L24.6668 12.9167M1.3335 7.08333L12.5828 1.45869C12.7358 1.38217 12.8123 1.34391 12.8926 1.32885C12.9637 1.31551 13.0366 1.31551 13.1077 1.32885C13.188 1.34391 13.2645 1.38217 13.4176 1.45869L24.6668 7.08333L13.4176 12.708C13.2645 12.7845 13.188 12.8227 13.1077 12.8378C13.0366 12.8511 12.9637 12.8511 12.8926 12.8378C12.8123 12.8227 12.7358 12.7845 12.5828 12.708L1.3335 7.08333Z" stroke="#161F33" stroke-width="1.5" stroke-linecap="round" stroke-linejoin="round"/>
</svg>
