<svg width="26" height="26" viewBox="0 0 26 26" fill="none" xmlns="http://www.w3.org/2000/svg">
<path d="M1.3335 13L12.5828 18.6246C12.7358 18.7011 12.8123 18.7394 12.8926 18.7545C12.9637 18.7678 13.0366 18.7678 13.1077 18.7545C13.188 18.7394 13.2645 18.7011 13.4176 18.6246L24.6668 13M1.3335 18.8333L12.5828 24.4579C12.7358 24.5345 12.8123 24.5727 12.8926 24.5878C12.9637 24.6011 13.0366 24.6011 13.1077 24.5878C13.188 24.5727 13.2645 24.5345 13.4176 24.4579L24.6668 18.8333M1.3335 7.16664L12.5828 1.54201C12.7358 1.46548 12.8123 1.42722 12.8926 1.41216C12.9637 1.39883 13.0366 1.39883 13.1077 1.41216C13.188 1.42722 13.2645 1.46548 13.4176 1.54201L24.6668 7.16664L13.4176 12.7913C13.2645 12.8678 13.188 12.9061 13.1077 12.9211C13.0366 12.9345 12.9637 12.9345 12.8926 12.9211C12.8123 12.9061 12.7358 12.8678 12.5828 12.7913L1.3335 7.16664Z" stroke="#161F33" stroke-width="1.5" stroke-linecap="round" stroke-linejoin="round"/>
</svg>
