<svg width="16" height="8" viewBox="0 0 16 8" fill="none" xmlns="http://www.w3.org/2000/svg">
<path d="M0 1.1C0 0.768629 0.268629 0.5 0.6 0.5C0.931371 0.5 1.2 0.768629 1.2 1.1V6.9C1.2 7.23137 0.931371 7.5 0.6 7.5C0.268629 7.5 0 7.23137 0 6.9V1.1Z" fill="#0063F7"/>
<path d="M2.7998 1.1C2.7998 0.768629 3.06843 0.5 3.3998 0.5C3.73118 0.5 3.9998 0.768629 3.9998 1.1V6.9C3.9998 7.23137 3.73118 7.5 3.3998 7.5C3.06843 7.5 2.7998 7.23137 2.7998 6.9V1.1Z" fill="#0063F7"/>
<path d="M5.59961 1.1C5.59961 0.768629 5.86824 0.5 6.19961 0.5C6.53098 0.5 6.79961 0.768629 6.79961 1.1V6.9C6.79961 7.23137 6.53098 7.5 6.19961 7.5C5.86824 7.5 5.59961 7.23137 5.59961 6.9V1.1Z" fill="#0063F7"/>
<path d="M8.39941 1.1C8.39941 0.768629 8.66804 0.5 8.99941 0.5C9.33079 0.5 9.59941 0.768629 9.59941 1.1V6.9C9.59941 7.23137 9.33079 7.5 8.99941 7.5C8.66804 7.5 8.39941 7.23137 8.39941 6.9V1.1Z" fill="#0063F7"/>
<path d="M11.1992 1.1C11.1992 0.768629 11.4678 0.5 11.7992 0.5C12.1306 0.5 12.3992 0.768629 12.3992 1.1V6.9C12.3992 7.23137 12.1306 7.5 11.7992 7.5C11.4678 7.5 11.1992 7.23137 11.1992 6.9V1.1Z" fill="#0063F7"/>
<path d="M13.999 1.1C13.999 0.768629 14.2677 0.5 14.599 0.5C14.9304 0.5 15.199 0.768629 15.199 1.1V6.9C15.199 7.23137 14.9304 7.5 14.599 7.5C14.2677 7.5 13.999 7.23137 13.999 6.9V1.1Z" fill="#0063F7"/>
</svg>
