<svg width="125" height="38" viewBox="0 0 125 38" fill="none" xmlns="http://www.w3.org/2000/svg">
<g clip-path="url(#clip0_35_204)">
<path d="M22.0684 34.9354V15.3225H31.8912C37.9546 15.3225 40.9865 17.6913 40.9865 22.4287V27.8293C40.9865 32.5667 37.9546 34.9354 31.8912 34.9354H22.0684ZM25.1244 32.7751H32.0731C35.9781 32.7751 37.9304 31.2497 37.9304 28.1989V22.0591C37.9304 19.0083 35.9781 17.4828 32.0731 17.4828H25.1244V32.7751ZM44.9771 34.9354V15.3225H61.3485V17.4828H48.0331V23.5656H60.257V25.7259H48.0331V32.7751H61.3485V34.9354H44.9771ZM64.6171 34.9354V15.3225H67.6731V32.7751H79.8972V34.9354H64.6171ZM81.8683 30.5864V19.6715C81.8683 16.7722 83.7237 15.3225 87.4343 15.3225H95.9478C99.659 15.3225 101.514 16.7722 101.514 19.6715V30.5864C101.514 33.4857 99.659 34.9354 95.9478 34.9354H87.4343C83.7237 34.9354 81.8683 33.4857 81.8683 30.5864ZM84.9242 30.8423C84.9242 32.1309 85.7485 32.7751 87.398 32.7751H95.9842C97.6336 32.7751 98.458 32.1309 98.458 30.8423V19.4157C98.458 18.1271 97.6336 17.4828 95.9842 17.4828H87.398C85.7485 17.4828 84.9242 18.1271 84.9242 19.4157V30.8423ZM105.523 30.5864V19.6715C105.523 16.7722 107.379 15.3225 111.09 15.3225H122.076L123.714 16.3174V17.4828H111.053C109.404 17.4828 108.579 18.1271 108.579 19.4157V30.8423C108.579 32.1309 109.404 32.7751 111.053 32.7751H121.385V25.7259H115.2V23.5656H124.441V34.9354H111.09C107.379 34.9354 105.523 33.4857 105.523 30.5864Z" fill="#161F33"/>
<path d="M17.3965 16.3441L7.96924 9.80646L11.6512 20.5558L12.667 23.6989L14.0001 27.282L17.7774 38" fill="#161F33"/>
<path d="M17.5812 12.8709L28.1985 9.05489L17.4874 5.52998L14.3647 4.49514L10.7423 3.3956L0 0" fill="#161F33"/>
</g>
<defs>
<clipPath id="clip0_35_204">
<rect width="125" height="38" fill="white"/>
</clipPath>
</defs>
</svg>
