<svg width="22" height="22" viewBox="0 0 22 22" fill="none" xmlns="http://www.w3.org/2000/svg">
<path d="M21.9069 9.56523H12.4349H12.4348V0.0931133C11.9651 0.0319688 11.4863 0 11 0C10.5137 0 10.0349 0.0319688 9.56523 0.0931133V9.56514V9.56519H0.0931133C0.0319688 10.0349 0 10.5137 0 11C0 11.4864 0.0319688 11.9651 0.0931133 12.4348H9.56514H9.56519V21.9069C10.0349 21.968 10.5137 22 11 22C11.4863 22 11.9651 21.9681 12.4348 21.9069V12.4349V12.4348H21.9069C21.968 11.9651 22 11.4864 22 11C22 10.5137 21.968 10.0349 21.9069 9.56523Z" fill="#D80027"/>
<path d="M6.69575 5.26147V3.82666H5.26098V5.26147H3.82617V6.69624H5.26098V8.13101H6.69575V6.69624H8.13052V5.26147H6.69575Z" fill="#D80027"/>
<path d="M16.7392 5.26147V3.82666H15.3044V5.26147H13.8696V6.69624H15.3044V8.13101H16.7392V6.69624H18.174V5.26147H16.7392Z" fill="#D80027"/>
<path d="M6.69575 15.3053V13.8705H5.26098V15.3053H3.82617V16.74H5.26098V18.1748H6.69575V16.74H8.13052V15.3053H6.69575Z" fill="#D80027"/>
<path d="M16.7392 15.3053V13.8705H15.3044V15.3053H13.8696V16.74H15.3044V18.1748H16.7392V16.74H18.174V15.3053H16.7392Z" fill="#D80027"/>
</svg>
