<svg width="20" height="2" viewBox="0 0 20 14" fill="none" xmlns="http://www.w3.org/2000/svg">
<path d="M19.8414 6.60122L14.387 0.944738C14.191 0.707472 13.8467 0.679813 13.6179 0.883052C13.3891 1.08624 13.3624 1.44333 13.5584 1.6806C13.5767 1.70272 13.5966 1.72338 13.6179 1.74229L18.1396 6.43716H0.545427C0.244214 6.43716 0 6.69042 0 7.00284C0 7.31526 0.244214 7.56847 0.545427 7.56847H18.1396L13.6179 12.2577C13.3891 12.4608 13.3624 12.8179 13.5584 13.0552C13.7544 13.2925 14.0987 13.3201 14.3275 13.1169C14.3488 13.0979 14.3687 13.0773 14.387 13.0552L19.8414 7.39872C20.0529 7.17818 20.0529 6.82186 19.8414 6.60122Z" fill="#161F33"/>
</svg>
