<svg width="26" height="22" viewBox="0 0 26 22" fill="none" xmlns="http://www.w3.org/2000/svg">
<path d="M1.33301 5.16669L10.8587 11.8347C11.6301 12.3747 12.0158 12.6446 12.4353 12.7492C12.8059 12.8416 13.1935 12.8416 13.564 12.7492C13.9836 12.6446 14.3692 12.3747 15.1406 11.8347L24.6663 5.16669M6.93301 20.3334H19.0663C21.0265 20.3334 22.0066 20.3334 22.7553 19.9519C23.4139 19.6163 23.9493 19.0809 24.2849 18.4223C24.6663 17.6736 24.6663 16.6935 24.6663 14.7334V7.26669C24.6663 5.3065 24.6663 4.32641 24.2849 3.57772C23.9493 2.91915 23.4139 2.38372 22.7553 2.04816C22.0066 1.66669 21.0265 1.66669 19.0663 1.66669H6.93301C4.97282 1.66669 3.99273 1.66669 3.24404 2.04816C2.58547 2.38372 2.05004 2.91915 1.71448 3.57772C1.33301 4.32641 1.33301 5.3065 1.33301 7.26669V14.7334C1.33301 16.6935 1.33301 17.6736 1.71448 18.4223C2.05004 19.0809 2.58547 19.6163 3.24404 19.9519C3.99273 20.3334 4.97282 20.3334 6.93301 20.3334Z" stroke="#0063F7" stroke-width="1.5" stroke-linecap="round" stroke-linejoin="round"/>
</svg>
